<svg xmlns="http://www.w3.org/2000/svg" xmlns:xlink="http://www.w3.org/1999/xlink" width="145" zoomAndPan="magnify" viewBox="0 0 108.75 30.000001" height="40" preserveAspectRatio="xMidYMid meet" version="1.0"><defs><g/><clipPath id="4fd78f2082"><path d="M 1.632812 0 L 106.875 0 L 106.875 29.03125 L 1.632812 29.03125 Z M 1.632812 0 " clip-rule="nonzero"/></clipPath><clipPath id="668920cedd"><path d="M 91.324219 7.910156 L 104.148438 7.910156 L 104.148438 22.324219 L 91.324219 22.324219 Z M 91.324219 7.910156 " clip-rule="nonzero"/></clipPath><clipPath id="ea8f112a06"><path d="M 103.46875 16.210938 L 93.234375 22.125 C 92.847656 22.347656 92.367188 22.347656 91.976562 22.125 C 91.589844 21.898438 91.347656 21.484375 91.347656 21.035156 L 91.347656 9.210938 C 91.347656 8.761719 91.589844 8.347656 91.976562 8.121094 C 92.367188 7.898438 92.847656 7.898438 93.234375 8.121094 L 103.46875 14.035156 C 103.859375 14.257812 104.097656 14.675781 104.097656 15.125 C 104.097656 15.570312 103.859375 15.988281 103.46875 16.210938 Z M 103.46875 16.210938 " clip-rule="nonzero"/></clipPath><clipPath id="9b0a539257"><path d="M 0.324219 0.910156 L 13.148438 0.910156 L 13.148438 15.324219 L 0.324219 15.324219 Z M 0.324219 0.910156 " clip-rule="nonzero"/></clipPath><clipPath id="1b51352d7d"><path d="M 12.46875 9.210938 L 2.234375 15.125 C 1.847656 15.347656 1.367188 15.347656 0.976562 15.125 C 0.589844 14.898438 0.347656 14.484375 0.347656 14.035156 L 0.347656 2.210938 C 0.347656 1.761719 0.589844 1.347656 0.976562 1.121094 C 1.367188 0.898438 1.847656 0.898438 2.234375 1.121094 L 12.46875 7.035156 C 12.859375 7.257812 13.097656 7.675781 13.097656 8.125 C 13.097656 8.570312 12.859375 8.988281 12.46875 9.210938 Z M 12.46875 9.210938 " clip-rule="nonzero"/></clipPath><clipPath id="f90326116d"><rect x="0" width="14" y="0" height="16"/></clipPath></defs><g clip-path="url(#4fd78f2082)"><path fill="#ffffff" d="M 1.632812 0 L 106.875 0 L 106.875 29.03125 L 1.632812 29.03125 Z M 1.632812 0 " fill-opacity="1" fill-rule="nonzero"/><path fill="#ff3e3e" d="M 1.632812 0 L 106.875 0 L 106.875 29.03125 L 1.632812 29.03125 Z M 1.632812 0 " fill-opacity="1" fill-rule="nonzero"/></g><g fill="#ffffff" fill-opacity="1"><g transform="translate(3.084676, 18.252249)"><g><path d="M 2.046875 -3.125 L 2.046875 0 L 1.078125 0 L 1.078125 -8.265625 L 3.359375 -8.265625 C 4.234375 -8.265625 4.914062 -8.046875 5.40625 -7.609375 C 5.894531 -7.179688 6.140625 -6.578125 6.140625 -5.796875 C 6.140625 -5.015625 5.867188 -4.375 5.328125 -3.875 C 4.785156 -3.375 4.054688 -3.125 3.140625 -3.125 Z M 2.046875 -7.390625 L 2.046875 -4 L 3.0625 -4 C 3.726562 -4 4.238281 -4.148438 4.59375 -4.453125 C 4.945312 -4.753906 5.125 -5.1875 5.125 -5.75 C 5.125 -6.84375 4.476562 -7.390625 3.1875 -7.390625 Z M 2.046875 -7.390625 "/></g></g></g><g fill="#ffffff" fill-opacity="1"><g transform="translate(9.690205, 18.252249)"><g><path d="M 1.90625 0 L 0.953125 0 L 0.953125 -8.734375 L 1.90625 -8.734375 Z M 1.90625 0 "/></g></g></g><g fill="#ffffff" fill-opacity="1"><g transform="translate(12.546651, 18.252249)"><g><path d="M 5.171875 0 L 4.234375 0 L 4.234375 -0.921875 L 4.203125 -0.921875 C 3.796875 -0.210938 3.191406 0.140625 2.390625 0.140625 C 1.804688 0.140625 1.347656 -0.015625 1.015625 -0.328125 C 0.679688 -0.640625 0.515625 -1.050781 0.515625 -1.5625 C 0.515625 -2.664062 1.164062 -3.304688 2.46875 -3.484375 L 4.234375 -3.734375 C 4.234375 -4.734375 3.828125 -5.234375 3.015625 -5.234375 C 2.304688 -5.234375 1.664062 -4.992188 1.09375 -4.515625 L 1.09375 -5.484375 C 1.675781 -5.847656 2.34375 -6.03125 3.09375 -6.03125 C 4.476562 -6.03125 5.171875 -5.300781 5.171875 -3.84375 Z M 4.234375 -2.984375 L 2.8125 -2.78125 C 2.375 -2.726562 2.039062 -2.625 1.8125 -2.46875 C 1.59375 -2.3125 1.484375 -2.035156 1.484375 -1.640625 C 1.484375 -1.347656 1.585938 -1.109375 1.796875 -0.921875 C 2.003906 -0.742188 2.273438 -0.65625 2.609375 -0.65625 C 3.078125 -0.65625 3.460938 -0.816406 3.765625 -1.140625 C 4.078125 -1.472656 4.234375 -1.890625 4.234375 -2.390625 Z M 4.234375 -2.984375 "/></g></g></g><g fill="#ffffff" fill-opacity="1"><g transform="translate(18.547489, 18.252249)"><g><path d="M 5.65625 -5.90625 L 2.9375 0.9375 C 2.457031 2.164062 1.78125 2.78125 0.90625 2.78125 C 0.65625 2.78125 0.445312 2.753906 0.28125 2.703125 L 0.28125 1.859375 C 0.488281 1.921875 0.675781 1.953125 0.84375 1.953125 C 1.320312 1.953125 1.675781 1.671875 1.90625 1.109375 L 2.390625 -0.015625 L 0.078125 -5.90625 L 1.125 -5.90625 L 2.71875 -1.359375 C 2.738281 -1.296875 2.78125 -1.144531 2.84375 -0.90625 L 2.875 -0.90625 C 2.894531 -1 2.9375 -1.144531 3 -1.34375 L 4.671875 -5.90625 Z M 5.65625 -5.90625 "/></g></g></g><g fill="#ffffff" fill-opacity="1"><g transform="translate(24.254621, 18.252249)"><g/></g></g><g fill="#ffffff" fill-opacity="1"><g transform="translate(27.485399, 18.252249)"><g><path d="M 9.5 0 L 8.546875 0 L 8.546875 -5.546875 C 8.546875 -5.984375 8.570312 -6.515625 8.625 -7.140625 L 8.59375 -7.140625 C 8.507812 -6.773438 8.429688 -6.507812 8.359375 -6.34375 L 5.53125 0 L 5.0625 0 L 2.234375 -6.296875 C 2.160156 -6.484375 2.082031 -6.765625 2 -7.140625 L 1.96875 -7.140625 C 2 -6.816406 2.015625 -6.28125 2.015625 -5.53125 L 2.015625 0 L 1.078125 0 L 1.078125 -8.265625 L 2.359375 -8.265625 L 4.890625 -2.5 C 5.085938 -2.0625 5.21875 -1.734375 5.28125 -1.515625 L 5.3125 -1.515625 C 5.476562 -1.960938 5.609375 -2.296875 5.703125 -2.515625 L 8.296875 -8.265625 L 9.5 -8.265625 Z M 9.5 0 "/></g></g></g><g fill="#ffffff" fill-opacity="1"><g transform="translate(38.07613, 18.252249)"><g><path d="M 5.171875 0 L 4.234375 0 L 4.234375 -0.921875 L 4.203125 -0.921875 C 3.796875 -0.210938 3.191406 0.140625 2.390625 0.140625 C 1.804688 0.140625 1.347656 -0.015625 1.015625 -0.328125 C 0.679688 -0.640625 0.515625 -1.050781 0.515625 -1.5625 C 0.515625 -2.664062 1.164062 -3.304688 2.46875 -3.484375 L 4.234375 -3.734375 C 4.234375 -4.734375 3.828125 -5.234375 3.015625 -5.234375 C 2.304688 -5.234375 1.664062 -4.992188 1.09375 -4.515625 L 1.09375 -5.484375 C 1.675781 -5.847656 2.34375 -6.03125 3.09375 -6.03125 C 4.476562 -6.03125 5.171875 -5.300781 5.171875 -3.84375 Z M 4.234375 -2.984375 L 2.8125 -2.78125 C 2.375 -2.726562 2.039062 -2.625 1.8125 -2.46875 C 1.59375 -2.3125 1.484375 -2.035156 1.484375 -1.640625 C 1.484375 -1.347656 1.585938 -1.109375 1.796875 -0.921875 C 2.003906 -0.742188 2.273438 -0.65625 2.609375 -0.65625 C 3.078125 -0.65625 3.460938 -0.816406 3.765625 -1.140625 C 4.078125 -1.472656 4.234375 -1.890625 4.234375 -2.390625 Z M 4.234375 -2.984375 "/></g></g></g><g fill="#ffffff" fill-opacity="1"><g transform="translate(44.076969, 18.252249)"><g><path d="M 5.0625 -5.625 L 1.578125 -0.8125 L 5.03125 -0.8125 L 5.03125 0 L 0.1875 0 L 0.1875 -0.296875 L 3.6875 -5.09375 L 0.515625 -5.09375 L 0.515625 -5.90625 L 5.0625 -5.90625 Z M 5.0625 -5.625 "/></g></g></g><g fill="#ffffff" fill-opacity="1"><g transform="translate(49.409768, 18.252249)"><g><path d="M 5.703125 -2.71875 L 1.53125 -2.71875 C 1.550781 -2.0625 1.726562 -1.550781 2.0625 -1.1875 C 2.394531 -0.832031 2.859375 -0.65625 3.453125 -0.65625 C 4.117188 -0.65625 4.726562 -0.875 5.28125 -1.3125 L 5.28125 -0.421875 C 4.769531 -0.046875 4.085938 0.140625 3.234375 0.140625 C 2.398438 0.140625 1.742188 -0.125 1.265625 -0.65625 C 0.785156 -1.195312 0.546875 -1.953125 0.546875 -2.921875 C 0.546875 -3.835938 0.804688 -4.582031 1.328125 -5.15625 C 1.847656 -5.738281 2.492188 -6.03125 3.265625 -6.03125 C 4.035156 -6.03125 4.632812 -5.78125 5.0625 -5.28125 C 5.488281 -4.78125 5.703125 -4.085938 5.703125 -3.203125 Z M 4.734375 -3.515625 C 4.722656 -4.054688 4.585938 -4.476562 4.328125 -4.78125 C 4.078125 -5.082031 3.71875 -5.234375 3.25 -5.234375 C 2.8125 -5.234375 2.4375 -5.070312 2.125 -4.75 C 1.8125 -4.4375 1.617188 -4.023438 1.546875 -3.515625 Z M 4.734375 -3.515625 "/></g></g></g><g fill="#ffffff" fill-opacity="1"><g transform="translate(55.577617, 18.252249)"><g/></g></g><g fill="#ffffff" fill-opacity="1"><g transform="translate(58.808395, 18.252249)"><g><path d="M 7.265625 -0.5625 C 6.429688 -0.09375 5.507812 0.140625 4.5 0.140625 C 3.3125 0.140625 2.351562 -0.238281 1.625 -1 C 0.90625 -1.757812 0.546875 -2.765625 0.546875 -4.015625 C 0.546875 -5.296875 0.945312 -6.34375 1.75 -7.15625 C 2.5625 -7.976562 3.585938 -8.390625 4.828125 -8.390625 C 5.722656 -8.390625 6.476562 -8.242188 7.09375 -7.953125 L 7.09375 -6.890625 C 6.425781 -7.304688 5.632812 -7.515625 4.71875 -7.515625 C 3.789062 -7.515625 3.03125 -7.195312 2.4375 -6.5625 C 1.851562 -5.925781 1.5625 -5.101562 1.5625 -4.09375 C 1.5625 -3.039062 1.832031 -2.21875 2.375 -1.625 C 2.925781 -1.03125 3.671875 -0.734375 4.609375 -0.734375 C 5.253906 -0.734375 5.816406 -0.863281 6.296875 -1.125 L 6.296875 -3.4375 L 4.484375 -3.4375 L 4.484375 -4.3125 L 7.265625 -4.3125 Z M 7.265625 -0.5625 "/></g></g></g><g fill="#ffffff" fill-opacity="1"><g transform="translate(66.899737, 18.252249)"><g><path d="M 5.171875 0 L 4.234375 0 L 4.234375 -0.921875 L 4.203125 -0.921875 C 3.796875 -0.210938 3.191406 0.140625 2.390625 0.140625 C 1.804688 0.140625 1.347656 -0.015625 1.015625 -0.328125 C 0.679688 -0.640625 0.515625 -1.050781 0.515625 -1.5625 C 0.515625 -2.664062 1.164062 -3.304688 2.46875 -3.484375 L 4.234375 -3.734375 C 4.234375 -4.734375 3.828125 -5.234375 3.015625 -5.234375 C 2.304688 -5.234375 1.664062 -4.992188 1.09375 -4.515625 L 1.09375 -5.484375 C 1.675781 -5.847656 2.34375 -6.03125 3.09375 -6.03125 C 4.476562 -6.03125 5.171875 -5.300781 5.171875 -3.84375 Z M 4.234375 -2.984375 L 2.8125 -2.78125 C 2.375 -2.726562 2.039062 -2.625 1.8125 -2.46875 C 1.59375 -2.3125 1.484375 -2.035156 1.484375 -1.640625 C 1.484375 -1.347656 1.585938 -1.109375 1.796875 -0.921875 C 2.003906 -0.742188 2.273438 -0.65625 2.609375 -0.65625 C 3.078125 -0.65625 3.460938 -0.816406 3.765625 -1.140625 C 4.078125 -1.472656 4.234375 -1.890625 4.234375 -2.390625 Z M 4.234375 -2.984375 "/></g></g></g><g fill="#ffffff" fill-opacity="1"><g transform="translate(72.900575, 18.252249)"><g><path d="M 9.328125 0 L 8.390625 0 L 8.390625 -3.390625 C 8.390625 -4.035156 8.285156 -4.503906 8.078125 -4.796875 C 7.878906 -5.085938 7.539062 -5.234375 7.0625 -5.234375 C 6.664062 -5.234375 6.320312 -5.050781 6.03125 -4.6875 C 5.75 -4.320312 5.609375 -3.878906 5.609375 -3.359375 L 5.609375 0 L 4.671875 0 L 4.671875 -3.5 C 4.671875 -4.65625 4.222656 -5.234375 3.328125 -5.234375 C 2.910156 -5.234375 2.566406 -5.0625 2.296875 -4.71875 C 2.035156 -4.375 1.90625 -3.921875 1.90625 -3.359375 L 1.90625 0 L 0.953125 0 L 0.953125 -5.90625 L 1.90625 -5.90625 L 1.90625 -4.96875 L 1.921875 -4.96875 C 2.335938 -5.675781 2.945312 -6.03125 3.75 -6.03125 C 4.15625 -6.03125 4.507812 -5.914062 4.8125 -5.6875 C 5.113281 -5.46875 5.316406 -5.175781 5.421875 -4.8125 C 5.859375 -5.625 6.515625 -6.03125 7.390625 -6.03125 C 8.679688 -6.03125 9.328125 -5.234375 9.328125 -3.640625 Z M 9.328125 0 "/></g></g></g><g fill="#ffffff" fill-opacity="1"><g transform="translate(83.059385, 18.252249)"><g><path d="M 5.703125 -2.71875 L 1.53125 -2.71875 C 1.550781 -2.0625 1.726562 -1.550781 2.0625 -1.1875 C 2.394531 -0.832031 2.859375 -0.65625 3.453125 -0.65625 C 4.117188 -0.65625 4.726562 -0.875 5.28125 -1.3125 L 5.28125 -0.421875 C 4.769531 -0.046875 4.085938 0.140625 3.234375 0.140625 C 2.398438 0.140625 1.742188 -0.125 1.265625 -0.65625 C 0.785156 -1.195312 0.546875 -1.953125 0.546875 -2.921875 C 0.546875 -3.835938 0.804688 -4.582031 1.328125 -5.15625 C 1.847656 -5.738281 2.492188 -6.03125 3.265625 -6.03125 C 4.035156 -6.03125 4.632812 -5.78125 5.0625 -5.28125 C 5.488281 -4.78125 5.703125 -4.085938 5.703125 -3.203125 Z M 4.734375 -3.515625 C 4.722656 -4.054688 4.585938 -4.476562 4.328125 -4.78125 C 4.078125 -5.082031 3.71875 -5.234375 3.25 -5.234375 C 2.8125 -5.234375 2.4375 -5.070312 2.125 -4.75 C 1.8125 -4.4375 1.617188 -4.023438 1.546875 -3.515625 Z M 4.734375 -3.515625 "/></g></g></g><g clip-path="url(#668920cedd)"><g clip-path="url(#ea8f112a06)"><g transform="matrix(1, 0, 0, 1, 91, 7)"><g clip-path="url(#f90326116d)"><g clip-path="url(#9b0a539257)"><g clip-path="url(#1b51352d7d)"><path fill="#ffffff" d="M 14.355469 0.0351562 L 14.355469 16.199219 L 0.324219 16.199219 L 0.324219 0.0351562 Z M 14.355469 0.0351562 " fill-opacity="1" fill-rule="nonzero"/></g></g></g></g></g></g></svg>